<svg xmlns="http://www.w3.org/2000/svg" viewBox="0 0 128 128"><linearGradient id="a" x1="2689.252" x2="2918.07" y1="-1106.803" y2="-1106.803" gradientTransform="matrix(.45451 0 0 .455522 -1210.292 616.173)" gradientUnits="userSpaceOnUse"><stop offset="0" stop-color="#62a0ea" style="stop-color:#637692;stop-opacity:1"/><stop offset=".058" stop-color="#afd4ff" style="stop-color:#b1cae1;stop-opacity:1"/><stop offset=".122" stop-color="#62a0ea" style="stop-color:#637692;stop-opacity:1"/><stop offset=".873" stop-color="#62a0ea" style="stop-color:#637692;stop-opacity:1"/><stop offset=".956" stop-color="#c0d5ea" style="stop-color:#b1cae1;stop-opacity:1"/><stop offset="1" stop-color="#62a0ea" style="stop-color:#637692;stop-opacity:1"/></linearGradient><path fill="#438de6" d="M21.977 12C16.449 12 12 16.46 12 22v86.031c0 5.543 4.45 10 9.977 10h84.043a9.965 9.965 0 0 0 9.98-10V35.945c0-6.629-5.36-12-11.973-12H58a6.487 6.487 0 0 1-5.797-3.582L50.7 17.371A9.74 9.74 0 0 0 42 12zm0 0" style="fill:#637692;fill-opacity:1"/><path fill="url(#a)" d="M65.977 36a9.93 9.93 0 0 0-7.028 2.89C56.676 41.146 53.566 44 50.316 44h-28.34C16.45 44 12 48.46 12 54v54.031c0 5.543 4.45 10 9.977 10h84.043a9.965 9.965 0 0 0 9.98-10V46c0-5.54-4.45-10-9.98-10zm0 0"/><path fill="#a4caee" d="M65.977 32a9.93 9.93 0 0 0-7.028 2.89C56.676 37.146 53.566 40 50.316 40h-28.34C16.45 40 12 44.46 12 50v55.977c0 5.539 4.45 10 9.977 10h84.043c5.53 0 9.98-4.461 9.98-10V42c0-5.54-4.45-10-9.98-10zm0 0" style="fill:#b1cae1;fill-opacity:1"/></svg>
