<?xml version="1.0" encoding="UTF-8"?>
<svg height="128px" viewBox="0 0 128 128" width="128px" xmlns="http://www.w3.org/2000/svg" xmlns:xlink="http://www.w3.org/1999/xlink">
    <linearGradient id="a" gradientUnits="userSpaceOnUse">
        <stop offset="0" stop-color="#c0bfbc"/>
        <stop offset="1" stop-color="#f6f5f4"/>
    </linearGradient>
    <linearGradient id="b" x1="16.6" x2="16.6" xlink:href="#a" y1="62" y2="54"/>
    <linearGradient id="c" gradientUnits="userSpaceOnUse">
        <stop offset="0" stop-color="#4c8cf4"/>
        <stop offset="0.11" stop-color="#4c8cf4"/>
        <stop offset="0.4" stop-color="#a2c4fa"/>
        <stop offset="0.57" stop-color="#a2c4fa"/>
        <stop offset="0.8" stop-color="#1970e3"/>
        <stop offset="1" stop-color="#1970e3"/>
    </linearGradient>
    <linearGradient id="d" gradientTransform="matrix(-0.333 0 0 -1 51.330002 284)" x1="23.25" x2="23.25" xlink:href="#c" y1="218" y2="235.5"/>
    <linearGradient id="e" gradientUnits="userSpaceOnUse" x1="17.23" x2="23" y1="58" y2="58">
        <stop offset="0" stop-color="#4c8cf4"/>
        <stop offset="0.11" stop-color="#4c8cf4"/>
        <stop offset="0.4" stop-color="#a2c4fa"/>
        <stop offset="0.57" stop-color="#a2c4fa"/>
        <stop offset="0.96" stop-color="#1970e3"/>
        <stop offset="1" stop-color="#1970e3"/>
    </linearGradient>
    <linearGradient id="f" gradientTransform="matrix(-1 0 0 1 0 -172)" x1="-11.09" x2="-11.09" xlink:href="#a" y1="236" y2="224"/>
    <linearGradient id="g" gradientUnits="userSpaceOnUse">
        <stop offset="0" stop-color="#77767b"/>
        <stop offset="0.6" stop-color="#c0bfbc"/>
        <stop offset="1" stop-color="#77767b"/>
    </linearGradient>
    <linearGradient id="h" gradientTransform="matrix(-1 0 0 1 0 -172)" x1="-7" x2="-7" xlink:href="#g" y1="240" y2="220"/>
    <linearGradient id="i" gradientTransform="matrix(0.667 0 0 2 15.33 -362)" x1="43" x2="49" xlink:href="#a" y1="201" y2="201"/>
    <linearGradient id="j" gradientTransform="matrix(1 0 0 1.143 0 -193.710007)" x1="40" x2="52" xlink:href="#g" y1="195.75" y2="195.75"/>
    <linearGradient id="k" gradientUnits="userSpaceOnUse">
        <stop offset="0" stop-color="#4c8cf4"/>
        <stop offset="0.29" stop-color="#4c8cf4"/>
        <stop offset="0.46" stop-color="#a2c4fa"/>
        <stop offset="0.67" stop-color="#a2c4fa"/>
        <stop offset="0.86" stop-color="#1970e3"/>
        <stop offset="1" stop-color="#1970e3"/>
    </linearGradient>
    <linearGradient id="l" gradientTransform="matrix(1.5 0 0 1.293 -29 -228.550003)" x1="41.939999" x2="56" xlink:href="#k" y1="239" y2="239"/>
    <linearGradient id="m" gradientTransform="matrix(0.667 0 0 2 29.33 -362)" x1="43" x2="49" xlink:href="#a" y1="201" y2="201"/>
    <linearGradient id="n" gradientTransform="matrix(1 0 0 1.143 14 -193.710007)" x1="40" x2="52" xlink:href="#g" y1="195.75" y2="195.75"/>
    <linearGradient id="o" gradientTransform="matrix(1.5 0 0 1.293 -15 -228.550003)" x1="41.939999" x2="56" xlink:href="#k" y1="239" y2="239"/>
    <linearGradient id="p" gradientTransform="matrix(0.667 0 0 2 43.330002 -362)" x1="43" x2="49" xlink:href="#a" y1="201" y2="201"/>
    <linearGradient id="q" gradientTransform="matrix(1 0 0 1.143 28 -193.710007)" x1="40" x2="52" xlink:href="#g" y1="195.75" y2="195.75"/>
    <linearGradient id="r" gradientTransform="matrix(1.5 0 0 1.293 -1 -228.550003)" x1="41.939999" x2="56" xlink:href="#k" y1="239" y2="239"/>
    <linearGradient id="s" gradientUnits="userSpaceOnUse">
        <stop offset="0" stop-color="#4c8cf4"/>
        <stop offset="0.46" stop-color="#4c8cf4"/>
        <stop offset="0.69" stop-color="#a2c4fa"/>
        <stop offset="0.82" stop-color="#a2c4fa"/>
        <stop offset="1" stop-color="#1970e3"/>
    </linearGradient>
    <radialGradient id="t" cx="-41.983655706" cy="-245.885188294" r="21.946238706" xlink:href="#s"/>
    <radialGradient id="u" cx="266.016337294" cy="78.114811706" r="21.946238706" xlink:href="#s"/>
    <radialGradient id="v" cx="266.016337294" cy="-41.885188294" r="21.946238706" xlink:href="#s"/>
    <radialGradient id="w" cx="-245.983647706" cy="78.114811706" r="21.946238706" xlink:href="#s"/>
    <linearGradient id="x" gradientTransform="matrix(0 0.278 -1 0 252 69.559998)" x1="23.25" x2="23.25" xlink:href="#c" y1="218" y2="235.5"/>
    <linearGradient id="y" gradientTransform="matrix(-0.5 0 0 1 86 -116)" x1="23.25" x2="23.25" xlink:href="#c" y1="218" y2="235.5"/>
    <linearGradient id="z" gradientTransform="matrix(0 0.278 1 0 -132 69.559998)" x1="23.25" x2="23.25" xlink:href="#c" y1="218" y2="235.5"/>
    <radialGradient id="A" cx="72" cy="233.710007" gradientTransform="matrix(2.833 0 0 0.573 -132.009995 -69.959999)" gradientUnits="userSpaceOnUse" r="26">
        <stop offset="0" stop-color="#4c8cf4"/>
        <stop offset="0.11" stop-color="#4c8cf4"/>
        <stop offset="0.34" stop-color="#a2c4fa"/>
        <stop offset="0.54" stop-color="#a2c4fa"/>
        <stop offset="0.79" stop-color="#1970e3"/>
        <stop offset="1" stop-color="#1970e3"/>
    </radialGradient>
    <radialGradient id="B" cx="83.330002" cy="251.199997" gradientTransform="matrix(1.878 0 0 1.065 -72.879997 -181.869995)" gradientUnits="userSpaceOnUse" r="26">
        <stop offset="0" stop-color="#4c8cf4"/>
        <stop offset="0.48" stop-color="#1970e3"/>
        <stop offset="0.74" stop-color="#4c8cf4"/>
        <stop offset="1" stop-color="#a2c4fa" stop-opacity="0"/>
    </radialGradient>
    <radialGradient id="C" cx="85.519997" cy="250.949997" gradientTransform="matrix(2.296 0 0 -1.065 -107.690002 297.869995)" gradientUnits="userSpaceOnUse" r="26">
        <stop offset="0" stop-color="#4c8cf4"/>
        <stop offset="0.38" stop-color="#4c8cf4"/>
        <stop offset="0.64" stop-color="#4c8cf4" stop-opacity="0.188235"/>
        <stop offset="1" stop-color="#4c8cf4" stop-opacity="0"/>
    </radialGradient>
    <linearGradient id="D" gradientTransform="matrix(-0.417 0 0 -1 78.669998 284)" x1="23.25" x2="23.25" xlink:href="#c" y1="218" y2="235.5"/>
    <linearGradient id="E" x1="122" x2="122" xlink:href="#k" y1="16" y2="100"/>
    <clipPath id="F">
        <rect height="128" width="128"/>
    </clipPath>
    <clipPath id="G">
        <rect height="128" width="128"/>
    </clipPath>
    <filter id="H" height="100%" width="100%" x="0%" y="0%">
        <feColorMatrix in="SourceGraphic" type="matrix" values="0 0 0 0 1 0 0 0 0 1 0 0 0 0 1 0 0 0 1 0"/>
    </filter>
    <mask id="I">
        <g clip-path="url(#G)" filter="url(#H)">
            <g clip-path="url(#F)">
                <path d="m 6 54 h 16 v 8 h -16 z m 0 0" fill="url(#b)"/>
                <path d="m 46 64 h -24 v -12 h 24 z m 0 0" fill="url(#d)"/>
                <path d="m 21 50 c 1.105469 0 2 0.894531 2 2 v 12 c 0 1.105469 -0.894531 2 -2 2 s -2 -0.894531 -2 -2 v -12 c 0 -1.101562 0.898438 -2 2 -2 z m 0 0" fill="url(#e)"/>
                <path d="m 14 62 v -8 h 2 v 8 z m 0 0" fill="#9a9996"/>
                <path d="m 11.5 52 h -2.5 c -1.65625 0 -3 1.34375 -3 3 v 6 c 0 1.65625 1.34375 3 3 3 h 2.5 c 1.65625 0 3 -1.34375 3 -3 v -6 c 0 -1.65625 -1.34375 -3 -3 -3 z m 0 0" fill="url(#f)"/>
                <path d="m 7 48 c -1.65625 0 -3 1.34375 -3 3 v 14 c 0 1.65625 1.34375 3 3 3 s 3 -1.34375 3 -3 v -14 c 0 -1.65625 -1.34375 -3 -3 -3 z m 0 0" fill="url(#h)"/>
                <path d="m 44 30 h 4 v 20 h -4 z m 0 0" fill="url(#i)"/>
                <path d="m 44 31 h 4 v 2 h -4 z m 0 0" fill="#9a9996"/>
                <path d="m 41 28 h 10 c 0.550781 0 1 0.449219 1 1 v 2 c 0 0.550781 -0.449219 1 -1 1 h -10 c -0.550781 0 -1 -0.449219 -1 -1 v -2 c 0 -0.550781 0.449219 -1 1 -1 z m 0 0" fill="url(#j)"/>
                <path d="m 40 43 h 12 v 75 h -12 z m 0 0" fill="url(#l)"/>
                <path d="m 40 118 h 12 v 2 h -12 z m 0 0" fill="#c0bfbc"/>
                <path d="m 40 42 h 12 v 2 h -12 z m 0 0" fill="#77767b"/>
                <path d="m 58 30 h 4 v 20 h -4 z m 0 0" fill="url(#m)"/>
                <path d="m 58 31 h 4 v 2 h -4 z m 0 0" fill="#9a9996"/>
                <path d="m 55 28 h 10 c 0.550781 0 1 0.449219 1 1 v 2 c 0 0.550781 -0.449219 1 -1 1 h -10 c -0.550781 0 -1 -0.449219 -1 -1 v -2 c 0 -0.550781 0.449219 -1 1 -1 z m 0 0" fill="url(#n)"/>
                <path d="m 54 43 h 12 v 75 h -12 z m 0 0" fill="url(#o)"/>
                <path d="m 54 118 h 12 v 2 h -12 z m 0 0" fill="#c0bfbc"/>
                <path d="m 54 42 h 12 v 2 h -12 z m 0 0" fill="#77767b"/>
                <path d="m 72 30 h 4 v 20 h -4 z m 0 0" fill="url(#p)"/>
                <path d="m 72 31 h 4 v 2 h -4 z m 0 0" fill="#9a9996"/>
                <path d="m 69 28 h 10 c 0.550781 0 1 0.449219 1 1 v 2 c 0 0.550781 -0.449219 1 -1 1 h -10 c -0.550781 0 -1 -0.449219 -1 -1 v -2 c 0 -0.550781 0.449219 -1 1 -1 z m 0 0" fill="url(#q)"/>
                <path d="m 68 43 h 12 v 75 h -12 z m 0 0" fill="url(#r)"/>
                <path d="m 68 118 h 12 v 2 h -12 z m 0 0" fill="#c0bfbc"/>
                <path d="m 68 42 h 12 v 2 h -12 z m 0 0" fill="#77767b"/>
                <path d="m -26 -246 c 0 8.835938 -7.164062 16 -16 16" fill="none" stroke="url(#t)" stroke-linecap="round" stroke-width="12" transform="matrix(-1 0 -0 -1 -0 -172)"/>
                <path d="m 282 78 c 0 8.835938 -7.164062 16 -16 16" fill="none" stroke="url(#u)" stroke-linecap="round" stroke-width="12" transform="matrix(0 1 1 0 0 -172)"/>
                <path d="m 282 -42 c 0 8.835938 -7.164062 16 -16 16" fill="none" stroke="url(#v)" stroke-linecap="round" stroke-width="12" transform="matrix(0 1 -1 0 0 -172)"/>
                <path d="m -230 78 c 0 8.835937 -7.164062 16 -16 16" fill="none" stroke="url(#w)" stroke-linecap="round" stroke-width="12" transform="matrix(-0 -1 1 -0 -0 -172)"/>
                <path d="m 32 74 v 20 h -12 v -20 z m 0 0" fill="url(#x)"/>
                <path d="m 78 104 h -36 v 12 h 36 z m 0 0" fill="url(#y)"/>
                <path d="m 88 74 v 20 h 12 v -20 z m 0 0" fill="url(#z)"/>
                <path d="m 120 100 c -8 -20 -32 -36 -48 -36 v -12 c 16 0 40 -16 48 -36 h 4 v 84 z m 0 0" fill="url(#A)"/>
                <path d="m 120 100 c -8 -20 -32 -36 -48 -36 v -12 c 16 0 40 -16 48 -36 h 4 v 84 z m 0 0" fill="url(#B)"/>
                <path d="m 120 16 c -8 20 -32 36 -48 36 v 12 c 16 0 40 16 48 36 h 4 v -84 z m 0 0" fill="url(#C)"/>
                <path d="m 72 64 h -30 v -12 h 30 z m 0 0" fill="url(#D)"/>
                <path d="m 120 16 h 4 v 84 h -4 z m 0 0" fill="url(#E)"/>
            </g>
        </g>
    </mask>
    <mask id="J">
        <g filter="url(#H)">
            <rect fill-opacity="0.8" height="128" width="128"/>
        </g>
    </mask>
    <linearGradient id="K" gradientTransform="matrix(0 0.37 -0.98462 0 295.38501 -30.360001)" gradientUnits="userSpaceOnUse" x1="300" x2="428" y1="235" y2="235">
        <stop offset="0" stop-color="#f9f06b"/>
        <stop offset="1" stop-color="#f5c211"/>
    </linearGradient>
    <clipPath id="L">
        <rect height="128" width="128"/>
    </clipPath>
    <clipPath id="M">
        <rect height="128" width="128"/>
    </clipPath>
    <path d="m 6 54 h 16 v 8 h -16 z m 0 0" fill="url(#b)"/>
    <path d="m 46 64 h -24 v -12 h 24 z m 0 0" fill="url(#d)"/>
    <path d="m 21 50 c 1.105469 0 2 0.894531 2 2 v 12 c 0 1.105469 -0.894531 2 -2 2 s -2 -0.894531 -2 -2 v -12 c 0 -1.101562 0.898438 -2 2 -2 z m 0 0" fill="url(#e)"/>
    <path d="m 14 62 v -8 h 2 v 8 z m 0 0" fill="#9a9996"/>
    <path d="m 11.5 52 h -2.5 c -1.65625 0 -3 1.34375 -3 3 v 6 c 0 1.65625 1.34375 3 3 3 h 2.5 c 1.65625 0 3 -1.34375 3 -3 v -6 c 0 -1.65625 -1.34375 -3 -3 -3 z m 0 0" fill="url(#f)"/>
    <path d="m 7 48 c -1.65625 0 -3 1.34375 -3 3 v 14 c 0 1.65625 1.34375 3 3 3 s 3 -1.34375 3 -3 v -14 c 0 -1.65625 -1.34375 -3 -3 -3 z m 0 0" fill="url(#h)"/>
    <path d="m 44 30 h 4 v 20 h -4 z m 0 0" fill="url(#i)"/>
    <path d="m 44 31 h 4 v 2 h -4 z m 0 0" fill="#9a9996"/>
    <path d="m 41 28 h 10 c 0.550781 0 1 0.449219 1 1 v 2 c 0 0.550781 -0.449219 1 -1 1 h -10 c -0.550781 0 -1 -0.449219 -1 -1 v -2 c 0 -0.550781 0.449219 -1 1 -1 z m 0 0" fill="url(#j)"/>
    <path d="m 40 43 h 12 v 75 h -12 z m 0 0" fill="url(#l)"/>
    <path d="m 40 118 h 12 v 2 h -12 z m 0 0" fill="#c0bfbc"/>
    <path d="m 40 42 h 12 v 2 h -12 z m 0 0" fill="#77767b"/>
    <path d="m 58 30 h 4 v 20 h -4 z m 0 0" fill="url(#m)"/>
    <path d="m 58 31 h 4 v 2 h -4 z m 0 0" fill="#9a9996"/>
    <path d="m 55 28 h 10 c 0.550781 0 1 0.449219 1 1 v 2 c 0 0.550781 -0.449219 1 -1 1 h -10 c -0.550781 0 -1 -0.449219 -1 -1 v -2 c 0 -0.550781 0.449219 -1 1 -1 z m 0 0" fill="url(#n)"/>
    <path d="m 54 43 h 12 v 75 h -12 z m 0 0" fill="url(#o)"/>
    <path d="m 54 118 h 12 v 2 h -12 z m 0 0" fill="#c0bfbc"/>
    <path d="m 54 42 h 12 v 2 h -12 z m 0 0" fill="#77767b"/>
    <path d="m 72 30 h 4 v 20 h -4 z m 0 0" fill="url(#p)"/>
    <path d="m 72 31 h 4 v 2 h -4 z m 0 0" fill="#9a9996"/>
    <path d="m 69 28 h 10 c 0.550781 0 1 0.449219 1 1 v 2 c 0 0.550781 -0.449219 1 -1 1 h -10 c -0.550781 0 -1 -0.449219 -1 -1 v -2 c 0 -0.550781 0.449219 -1 1 -1 z m 0 0" fill="url(#q)"/>
    <path d="m 68 43 h 12 v 75 h -12 z m 0 0" fill="url(#r)"/>
    <path d="m 68 118 h 12 v 2 h -12 z m 0 0" fill="#c0bfbc"/>
    <path d="m 68 42 h 12 v 2 h -12 z m 0 0" fill="#77767b"/>
    <g fill="none" stroke-linecap="round" stroke-width="12">
        <path d="m -26 -246 c 0 8.835938 -7.164062 16 -16 16" stroke="url(#t)" transform="matrix(-1 0 -0 -1 -0 -172)"/>
        <path d="m 282 78 c 0 8.835938 -7.164062 16 -16 16" stroke="url(#u)" transform="matrix(0 1 1 0 0 -172)"/>
        <path d="m 282 -42 c 0 8.835938 -7.164062 16 -16 16" stroke="url(#v)" transform="matrix(0 1 -1 0 0 -172)"/>
        <path d="m -230 78 c 0 8.835937 -7.164062 16 -16 16" stroke="url(#w)" transform="matrix(-0 -1 1 -0 -0 -172)"/>
    </g>
    <path d="m 32 74 v 20 h -12 v -20 z m 0 0" fill="url(#x)"/>
    <path d="m 78 104 h -36 v 12 h 36 z m 0 0" fill="url(#y)"/>
    <path d="m 88 74 v 20 h 12 v -20 z m 0 0" fill="url(#z)"/>
    <path d="m 120 100 c -8 -20 -32 -36 -48 -36 v -12 c 16 0 40 -16 48 -36 h 4 v 84 z m 0 0" fill="url(#A)"/>
    <path d="m 120 100 c -8 -20 -32 -36 -48 -36 v -12 c 16 0 40 -16 48 -36 h 4 v 84 z m 0 0" fill="url(#B)"/>
    <path d="m 120 16 c -8 20 -32 36 -48 36 v 12 c 16 0 40 16 48 36 h 4 v -84 z m 0 0" fill="url(#C)"/>
    <path d="m 72 64 h -30 v -12 h 30 z m 0 0" fill="url(#D)"/>
    <path d="m 120 16 h 4 v 84 h -4 z m 0 0" fill="url(#E)"/>
    <g clip-path="url(#M)" mask="url(#I)">
        <g clip-path="url(#L)" mask="url(#J)">
            <path d="m 128 80.640625 v 47.359375 h -128 v -47.359375 z m 0 0" fill="url(#K)"/>
            <path d="m 13.308594 80.640625 l 47.355468 47.359375 h 21.214844 l -47.359375 -47.359375 z m 42.421875 0 l 47.363281 47.359375 h 21.214844 l -47.363282 -47.359375 z m 42.429687 0 l 29.839844 29.839844 v -21.210938 l -8.628906 -8.628906 z m -98.160156 7.90625 v 21.214844 l 18.238281 18.238281 h 21.214844 z m 0 0"/>
        </g>
    </g>
</svg>
