<svg xmlns="http://www.w3.org/2000/svg" xmlns:xlink="http://www.w3.org/1999/xlink" width="128" height="128"><defs><linearGradient id="a" x1="16.6" x2="16.6" y1="234" y2="226" gradientTransform="translate(0 -172)" gradientUnits="userSpaceOnUse"><stop offset="0" stop-color="#c0bfbc"/><stop offset="1" stop-color="#f6f5f4"/></linearGradient><linearGradient id="b" x1="23.25" x2="23.25" y1="218" y2="235.5" gradientTransform="matrix(-.333 0 0 -1 51.33 284)" gradientUnits="userSpaceOnUse"><stop offset="0" stop-color="#4C8CF4"/><stop offset=".11" stop-color="#4C8CF4"/><stop offset=".4" stop-color="#A2C4FA"/><stop offset=".57" stop-color="#A2C4FA"/><stop offset=".8" stop-color="#1970e3"/><stop offset="1" stop-color="#1970e3"/></linearGradient><linearGradient id="c" x1="17.23" x2="23" y1="230" y2="230" gradientTransform="translate(0 -172)" gradientUnits="userSpaceOnUse"><stop offset="0" stop-color="#4C8CF4"/><stop offset=".11" stop-color="#4C8CF4"/><stop offset=".4" stop-color="#A2C4FA"/><stop offset=".57" stop-color="#A2C4FA"/><stop offset=".96" stop-color="#1970e3"/><stop offset="1" stop-color="#1970e3"/></linearGradient><linearGradient id="d" x1="-11.09" x2="-11.09" y1="236" y2="224" gradientTransform="matrix(-1 0 0 1 0 -172)" gradientUnits="userSpaceOnUse"><stop offset="0" stop-color="#c0bfbc"/><stop offset="1" stop-color="#f6f5f4"/></linearGradient><linearGradient id="e" x1="-7" x2="-7" y1="240" y2="220" gradientTransform="matrix(-1 0 0 1 0 -172)" gradientUnits="userSpaceOnUse"><stop offset="0" stop-color="#77767b"/><stop offset=".6" stop-color="#c0bfbc"/><stop offset="1" stop-color="#77767b"/></linearGradient><linearGradient id="f" x1="43" x2="49" y1="201" y2="201" gradientTransform="matrix(.667 0 0 2 15.33 -362)" gradientUnits="userSpaceOnUse"><stop offset="0" stop-color="#c0bfbc"/><stop offset="1" stop-color="#f6f5f4"/></linearGradient><linearGradient id="g" x1="40" x2="52" y1="195.75" y2="195.75" gradientTransform="matrix(1 0 0 1.143 0 -193.71)" gradientUnits="userSpaceOnUse"><stop offset="0" stop-color="#77767b"/><stop offset=".6" stop-color="#c0bfbc"/><stop offset="1" stop-color="#77767b"/></linearGradient><linearGradient id="h" x1="41.94" x2="56" y1="239" y2="239" gradientTransform="matrix(1.5 0 0 1.293 -29 -228.55)" gradientUnits="userSpaceOnUse"><stop offset="0" stop-color="#4C8CF4"/><stop offset=".29" stop-color="#4C8CF4"/><stop offset=".46" stop-color="#A2C4FA"/><stop offset=".67" stop-color="#A2C4FA"/><stop offset=".86" stop-color="#1970e3"/><stop offset="1" stop-color="#1970e3"/></linearGradient><linearGradient id="i" x1="43" x2="49" y1="201" y2="201" gradientTransform="matrix(.667 0 0 2 29.33 -362)" gradientUnits="userSpaceOnUse"><stop offset="0" stop-color="#c0bfbc"/><stop offset="1" stop-color="#f6f5f4"/></linearGradient><linearGradient id="j" x1="40" x2="52" y1="195.75" y2="195.75" gradientTransform="matrix(1 0 0 1.143 14 -193.71)" gradientUnits="userSpaceOnUse"><stop offset="0" stop-color="#77767b"/><stop offset=".6" stop-color="#c0bfbc"/><stop offset="1" stop-color="#77767b"/></linearGradient><linearGradient id="k" x1="41.94" x2="56" y1="239" y2="239" gradientTransform="matrix(1.5 0 0 1.293 -15 -228.55)" gradientUnits="userSpaceOnUse"><stop offset="0" stop-color="#4C8CF4"/><stop offset=".29" stop-color="#4C8CF4"/><stop offset=".46" stop-color="#A2C4FA"/><stop offset=".67" stop-color="#A2C4FA"/><stop offset=".86" stop-color="#1970e3"/><stop offset="1" stop-color="#1970e3"/></linearGradient><linearGradient id="l" x1="43" x2="49" y1="201" y2="201" gradientTransform="matrix(.667 0 0 2 43.33 -362)" gradientUnits="userSpaceOnUse"><stop offset="0" stop-color="#c0bfbc"/><stop offset="1" stop-color="#f6f5f4"/></linearGradient><linearGradient id="m" x1="40" x2="52" y1="195.75" y2="195.75" gradientTransform="matrix(1 0 0 1.143 28 -193.71)" gradientUnits="userSpaceOnUse"><stop offset="0" stop-color="#77767b"/><stop offset=".6" stop-color="#c0bfbc"/><stop offset="1" stop-color="#77767b"/></linearGradient><linearGradient id="n" x1="41.94" x2="56" y1="239" y2="239" gradientTransform="matrix(1.5 0 0 1.293 -1 -228.55)" gradientUnits="userSpaceOnUse"><stop offset="0" stop-color="#4C8CF4"/><stop offset=".29" stop-color="#4C8CF4"/><stop offset=".46" stop-color="#A2C4FA"/><stop offset=".67" stop-color="#A2C4FA"/><stop offset=".86" stop-color="#1970e3"/><stop offset="1" stop-color="#1970e3"/></linearGradient><linearGradient id="s" x1="23.25" x2="23.25" y1="218" y2="235.5" gradientTransform="matrix(0 .278 -1 0 252 69.56)" gradientUnits="userSpaceOnUse"><stop offset="0" stop-color="#4C8CF4"/><stop offset=".11" stop-color="#4C8CF4"/><stop offset=".4" stop-color="#A2C4FA"/><stop offset=".57" stop-color="#A2C4FA"/><stop offset=".8" stop-color="#1970e3"/><stop offset="1" stop-color="#1970e3"/></linearGradient><linearGradient id="t" x1="23.25" x2="23.25" y1="218" y2="235.5" gradientTransform="matrix(-.5 0 0 1 86 -116)" gradientUnits="userSpaceOnUse"><stop offset="0" stop-color="#4C8CF4"/><stop offset=".11" stop-color="#4C8CF4"/><stop offset=".4" stop-color="#A2C4FA"/><stop offset=".57" stop-color="#A2C4FA"/><stop offset=".8" stop-color="#1970e3"/><stop offset="1" stop-color="#1970e3"/></linearGradient><linearGradient id="u" x1="23.25" x2="23.25" y1="218" y2="235.5" gradientTransform="matrix(0 .278 1 0 -132 69.56)" gradientUnits="userSpaceOnUse"><stop offset="0" stop-color="#4C8CF4"/><stop offset=".11" stop-color="#4C8CF4"/><stop offset=".4" stop-color="#A2C4FA"/><stop offset=".57" stop-color="#A2C4FA"/><stop offset=".8" stop-color="#1970e3"/><stop offset="1" stop-color="#1970e3"/></linearGradient><linearGradient id="B" x1="23.25" x2="23.25" y1="218" y2="235.5" gradientTransform="matrix(-.417 0 0 -1 78.67 284)" gradientUnits="userSpaceOnUse"><stop offset="0" stop-color="#4C8CF4"/><stop offset=".11" stop-color="#4C8CF4"/><stop offset=".4" stop-color="#A2C4FA"/><stop offset=".57" stop-color="#A2C4FA"/><stop offset=".8" stop-color="#1970e3"/><stop offset="1" stop-color="#1970e3"/></linearGradient><linearGradient id="A" x1="122" x2="122" y1="188" y2="272" gradientTransform="translate(0 -172)" gradientUnits="userSpaceOnUse"><stop offset="0" stop-color="#4C8CF4"/><stop offset=".29" stop-color="#4C8CF4"/><stop offset=".46" stop-color="#A2C4FA"/><stop offset=".67" stop-color="#A2C4FA"/><stop offset=".86" stop-color="#1970e3"/><stop offset="1" stop-color="#1970e3"/></linearGradient><radialGradient id="o" cx="26.11" cy="259.03" r="16.96" fx="26.11" fy="259.03" gradientTransform="translate(-75.77 -581.07) scale(1.294)" gradientUnits="userSpaceOnUse"><stop offset="0" stop-color="#4C8CF4"/><stop offset=".46" stop-color="#4C8CF4"/><stop offset=".69" stop-color="#A2C4FA"/><stop offset=".82" stop-color="#A2C4FA"/><stop offset="1" stop-color="#1970e3"/><stop offset="1" stop-color="#1970e3"/></radialGradient><radialGradient id="p" cx="26.11" cy="259.03" r="16.96" fx="26.11" fy="259.03" gradientTransform="translate(232.23 -257.07) scale(1.294)" gradientUnits="userSpaceOnUse"><stop offset="0" stop-color="#4C8CF4"/><stop offset=".46" stop-color="#4C8CF4"/><stop offset=".69" stop-color="#A2C4FA"/><stop offset=".82" stop-color="#A2C4FA"/><stop offset="1" stop-color="#1970e3"/><stop offset="1" stop-color="#1970e3"/></radialGradient><radialGradient id="q" cx="26.11" cy="259.03" r="16.96" fx="26.11" fy="259.03" gradientTransform="translate(232.23 -377.07) scale(1.294)" gradientUnits="userSpaceOnUse"><stop offset="0" stop-color="#4C8CF4"/><stop offset=".46" stop-color="#4C8CF4"/><stop offset=".69" stop-color="#A2C4FA"/><stop offset=".82" stop-color="#A2C4FA"/><stop offset="1" stop-color="#1970e3"/><stop offset="1" stop-color="#1970e3"/></radialGradient><radialGradient id="r" cx="26.11" cy="259.03" r="16.96" fx="26.11" fy="259.03" gradientTransform="translate(-279.77 -257.07) scale(1.294)" gradientUnits="userSpaceOnUse"><stop offset="0" stop-color="#4C8CF4"/><stop offset=".46" stop-color="#4C8CF4"/><stop offset=".69" stop-color="#A2C4FA"/><stop offset=".82" stop-color="#A2C4FA"/><stop offset="1" stop-color="#1970e3"/><stop offset="1" stop-color="#1970e3"/></radialGradient><radialGradient id="v" cx="72" cy="233.71" r="26" fx="72" fy="233.71" gradientTransform="matrix(2.833 0 0 .573 -132.01 -69.96)" gradientUnits="userSpaceOnUse"><stop offset="0" stop-color="#4C8CF4"/><stop offset=".11" stop-color="#4C8CF4"/><stop offset=".34" stop-color="#A2C4FA"/><stop offset=".54" stop-color="#A2C4FA"/><stop offset=".79" stop-color="#1970e3"/><stop offset="1" stop-color="#1970e3"/></radialGradient><radialGradient id="w" cx="83.33" cy="251.2" r="26" fx="83.33" fy="251.2" gradientTransform="matrix(1.878 0 0 1.065 -72.88 -181.87)" gradientUnits="userSpaceOnUse"><stop offset="0" stop-color="#4C8CF4"/><stop offset=".48" stop-color="#1970e3"/><stop offset=".74" stop-color="#4C8CF4"/><stop offset="1" stop-color="#A2C4FA" stop-opacity="0"/></radialGradient><radialGradient id="x" cx="85.52" cy="250.95" r="26" fx="85.52" fy="250.95" gradientTransform="matrix(2.296 0 0 -1.065 -107.69 297.87)" gradientUnits="userSpaceOnUse"><stop offset="0" stop-color="#4C8CF4"/><stop offset=".38" stop-color="#4C8CF4"/><stop offset=".64" stop-color="#4C8CF4" stop-opacity=".19"/><stop offset="1" stop-color="#4C8CF4" stop-opacity="0"/></radialGradient><clipPath id="y"><path d="M72 16h52v84H72Zm0 0"/></clipPath><clipPath id="z"><path d="M120 16c-8 20-32 36-48 36v12c16 0 40 16 48 36h4V16Zm0 0"/></clipPath></defs><path fill="url(#a)" d="M6 54h16v8H6Zm0 0"/><path fill="url(#b)" d="M46 64H22V52h24Zm0 0"/><path fill="url(#c)" d="M21 50a2 2 0 0 1 2 2v12a2 2 0 1 1-4 0V52c0-1.1.9-2 2-2Zm0 0"/><path fill="#9a9996" d="M14 62v-8h2v8Zm0 0"/><path fill="url(#d)" d="M11.5 52H9a3 3 0 0 0-3 3v6a3 3 0 0 0 3 3h2.5a3 3 0 0 0 3-3v-6a3 3 0 0 0-3-3Zm0 0"/><path fill="url(#e)" d="M7 48a3 3 0 0 0-3 3v14a3 3 0 0 0 6 0V51a3 3 0 0 0-3-3Zm0 0"/><path fill="url(#f)" d="M44 30h4v20h-4Zm0 0"/><path fill="#9a9996" d="M44 31h4v2h-4Zm0 0"/><path fill="url(#g)" d="M41 28h10a1 1 0 0 1 1 1v2a1 1 0 0 1-1 1H41a1 1 0 0 1-1-1v-2a1 1 0 0 1 1-1Zm0 0"/><path fill="url(#h)" d="M40 43h12v75H40Zm0 0"/><path fill="#c0bfbc" d="M40 118h12v2H40Zm0 0"/><path fill="#77767b" d="M40 42h12v2H40Zm0 0"/><path fill="url(#i)" d="M58 30h4v20h-4Zm0 0"/><path fill="#9a9996" d="M58 31h4v2h-4Zm0 0"/><path fill="url(#j)" d="M55 28h10a1 1 0 0 1 1 1v2a1 1 0 0 1-1 1H55a1 1 0 0 1-1-1v-2a1 1 0 0 1 1-1Zm0 0"/><path fill="url(#k)" d="M54 43h12v75H54Zm0 0"/><path fill="#c0bfbc" d="M54 118h12v2H54Zm0 0"/><path fill="#77767b" d="M54 42h12v2H54Zm0 0"/><path fill="url(#l)" d="M72 30h4v20h-4Zm0 0"/><path fill="#9a9996" d="M72 31h4v2h-4Zm0 0"/><path fill="url(#m)" d="M69 28h10a1 1 0 0 1 1 1v2a1 1 0 0 1-1 1H69a1 1 0 0 1-1-1v-2a1 1 0 0 1 1-1Zm0 0"/><path fill="url(#n)" d="M68 43h12v75H68Zm0 0"/><path fill="#c0bfbc" d="M68 118h12v2H68Zm0 0"/><path fill="#77767b" d="M68 42h12v2H68Zm0 0"/><path fill="none" stroke="url(#o)" stroke-linecap="round" stroke-width="12" d="M-26-246a16 16 0 0 1-16 16" transform="rotate(180 0 -86)"/><path fill="none" stroke="url(#p)" stroke-linecap="round" stroke-width="12" d="M282 78a16 16 0 0 1-16 16" transform="matrix(0 1 1 0 0 -172)"/><path fill="none" stroke="url(#q)" stroke-linecap="round" stroke-width="12" d="M282-42a16 16 0 0 1-16 16" transform="rotate(90 86 -86)"/><path fill="none" stroke="url(#r)" stroke-linecap="round" stroke-width="12" d="M-230 78a16 16 0 0 1-16 16" transform="rotate(-90 -86 -86)"/><path fill="url(#s)" d="M32 74v20H20V74Zm0 0"/><path fill="url(#t)" d="M78 104H42v12h36Zm0 0"/><path fill="url(#u)" d="M88 74v20h12V74Zm0 0"/><path fill="url(#v)" d="M120 100c-8-20-32-36-48-36V52c16 0 40-16 48-36h4v84Zm0 0"/><path fill="url(#w)" d="M120 100c-8-20-32-36-48-36V52c16 0 40-16 48-36h4v84Zm0 0"/><path fill="url(#x)" d="M120 16c-8 20-32 36-48 36v12c16 0 40 16 48 36h4V16Zm0 0"/><use xlink:href="#y" transform="translate(-8 -16)"/><g clip-path="url(#y)"><g clip-path="url(#z)"><use xlink:href="#A" transform="translate(-8 -16)"/><use xlink:href="#C" transform="translate(-8 -16)"/></g></g><use xlink:href="#D" transform="translate(-8 -16)"/><path fill="url(#B)" d="M72 64H42V52h30Zm0 0"/><path fill="url(#A)" d="M120 16h4v84h-4Zm0 0"/></svg>