<svg viewBox="0 0 16 16.005"><path fill="#2e3436" d="M687.5 40c-4.13 0-7.5 3.37-7.5 7.5s3.37 7.5 7.5 7.5 7.5-3.37 7.5-7.5-3.37-7.5-7.5-7.5zm0 2c.256 0 .506.023.752.057.19.26.381.59.549 1.025.106.277.203.585.289.918h-3.18a8.37 8.37 0 0 1 .29-.918c.167-.435.357-.765.548-1.025.246-.034.496-.057.752-.057zm-2.088.408c-.047.108-.102.2-.146.315-.149.385-.271.82-.38 1.277h-1.618a5.473 5.473 0 0 1 2.144-1.592zm4.176 0c.845.345 1.573.9 2.144 1.592h-1.619a9.893 9.893 0 0 0-.379-1.277c-.044-.115-.099-.207-.146-.315zM682.604 45h2.083c-.097.627-.148 1.3-.167 2h-2.483a5.472 5.472 0 0 1 .567-2zm3.097 0h3.598c.103.616.16 1.294.181 2h-3.96a15.18 15.18 0 0 1 .181-2zm4.612 0h2.083c.31.609.502 1.284.567 2h-2.483c-.02-.7-.07-1.373-.168-2zm-8.276 3h2.483c.02.699.07 1.373.168 2h-2.084a5.473 5.473 0 0 1-.567-2zm3.483 0h3.96a15.175 15.175 0 0 1-.181 2H685.7a15.168 15.168 0 0 1-.181-2zm4.96 0h2.483a5.472 5.472 0 0 1-.567 2h-2.083c.097-.627.148-1.301.167-2zm-7.212 3h1.619c.108.456.23.89.379 1.275.044.116.098.209.146.317A5.473 5.473 0 0 1 683.268 51zm2.642 0h3.18a8.33 8.33 0 0 1-.29.916 4.322 4.322 0 0 1-.55 1.027 5.565 5.565 0 0 1-.75.057 5.46 5.46 0 0 1-.75-.057 4.352 4.352 0 0 1-.55-1.027 8.466 8.466 0 0 1-.29-.916zm4.203 0h1.62a5.473 5.473 0 0 1-2.145 1.592c.048-.108.102-.201.146-.317.148-.384.271-.819.38-1.275z" color="#000" font-family="sans-serif" font-weight="400" overflow="visible" style="line-height:normal;font-variant-ligatures:normal;font-variant-position:normal;font-variant-caps:normal;font-variant-numeric:normal;font-variant-alternates:normal;font-feature-settings:normal;text-indent:0;text-align:start;text-decoration-line:none;text-decoration-style:solid;text-decoration-color:#000;text-transform:none;text-orientation:mixed;white-space:normal;shape-padding:0;isolation:auto;mix-blend-mode:normal;solid-color:#000;solid-opacity:1" transform="translate(-679.983 -40)"/></svg>