<?xml version="1.0" encoding="UTF-8" standalone="no"?>
<svg
   xmlns:dc="http://purl.org/dc/elements/1.1/"
   xmlns:cc="http://creativecommons.org/ns#"
   xmlns:rdf="http://www.w3.org/1999/02/22-rdf-syntax-ns#"
   xmlns:svg="http://www.w3.org/2000/svg"
   xmlns="http://www.w3.org/2000/svg"
   xmlns:sodipodi="http://sodipodi.sourceforge.net/DTD/sodipodi-0.dtd"
   xmlns:inkscape="http://www.inkscape.org/namespaces/inkscape"
   width="16"
   height="16"
   version="1.1"
   id="svg10"
   sodipodi:docname="mention-symbolic.svg"
   inkscape:version="1.0.2 (e86c870879, 2021-01-15)">
  <metadata
     id="metadata16">
    <rdf:RDF>
      <cc:Work
         rdf:about="">
        <dc:format>image/svg+xml</dc:format>
        <dc:type
           rdf:resource="http://purl.org/dc/dcmitype/StillImage" />
      </cc:Work>
    </rdf:RDF>
  </metadata>
  <defs
     id="defs14" />
  <sodipodi:namedview
     pagecolor="#ffffff"
     bordercolor="#666666"
     borderopacity="1"
     objecttolerance="10"
     gridtolerance="10"
     guidetolerance="10"
     inkscape:pageopacity="0"
     inkscape:pageshadow="2"
     inkscape:window-width="1920"
     inkscape:window-height="1016"
     id="namedview12"
     showgrid="false"
     inkscape:zoom="37.432465"
     inkscape:cx="4.1468168"
     inkscape:cy="9.8841469"
     inkscape:window-x="0"
     inkscape:window-y="27"
     inkscape:window-maximized="1"
     inkscape:current-layer="svg10" />
  <g
     fill="#474747"
     id="g8"
     transform="matrix(2.3598344,0,0,2.283804,-9.4385468,-11.405684)">
    <path
       d="M 7.285,5.004 A 3.506,3.506 0 0 0 4.027,8.94 3.506,3.506 0 0 0 7.515,12 5.68,5.68 0 0 0 9.159,11.724 L 8.843,10.775 c 0,0 -0.706,0.225 -1.331,0.225 H 7.51 A 2.494,2.494 0 0 1 5.02,8.814 2.495,2.495 0 0 1 6.887,6.076 2.797,2.797 0 0 1 8.695,6.24 C 9.221,6.481 9.585,6.87 9.699,7.299 9.823,7.763 9.786,8.269 9.615,8.574 9.517,8.75 9.212,8.928 9,9 V 8.5 C 9,7.677 8.323,7 7.5,7 6.678,7 6,7.677 6,8.5 6,9.322 6.678,10 7.5,10 7.676,10 7.843,9.963 8,9.906 V 9.951 L 8.45,9.998 C 9.391,10.094 10.142,9.681 10.488,9.062 10.835,8.444 10.843,7.705 10.666,7.041 10.458,6.257 9.846,5.669 9.112,5.332 A 3.75,3.75 0 0 0 7.285,5.004 Z M 7.5,8 C 7.782,8 8,8.218 8,8.5 8,8.782 7.782,9 7.5,9 A 0.493,0.493 0 0 1 7,8.5 C 7,8.218 7.218,8 7.5,8 Z"
       style="line-height:normal;font-variant-ligatures:normal;font-variant-position:normal;font-variant-caps:normal;font-variant-numeric:normal;font-variant-alternates:normal;font-feature-settings:normal;text-indent:0;text-align:start;text-decoration:none;text-decoration-line:none;text-decoration-style:solid;text-decoration-color:#000000;text-transform:none;text-orientation:mixed;shape-padding:0;isolation:auto;mix-blend-mode:normal"
       color="#000000"
       font-weight="400"
       font-family="sans-serif"
       overflow="visible"
       id="path6" />
  </g>
</svg>
