<?xml version="1.0" encoding="UTF-8"?>
<svg xmlns="http://www.w3.org/2000/svg" xmlns:xlink="http://www.w3.org/1999/xlink" height="16px" viewBox="0 0 16 16" width="16px"><filter id="a" height="100%" width="100%" x="0%" y="0%"><feColorMatrix in="SourceGraphic" type="matrix" values="0 0 0 0 1 0 0 0 0 1 0 0 0 0 1 0 0 0 1 0"/></filter><mask id="b"><g filter="url(#a)"><path d="m 0 0 h 16 v 16 h -16 z" fill-opacity="0.3"/></g></mask><clipPath id="c"><path d="m 0 0 h 1600 v 1200 h -1600 z"/></clipPath><mask id="d"><g filter="url(#a)"><path d="m 0 0 h 16 v 16 h -16 z" fill-opacity="0.05"/></g></mask><clipPath id="e"><path d="m 0 0 h 1600 v 1200 h -1600 z"/></clipPath><mask id="f"><g filter="url(#a)"><path d="m 0 0 h 16 v 16 h -16 z" fill-opacity="0.05"/></g></mask><clipPath id="g"><path d="m 0 0 h 1600 v 1200 h -1600 z"/></clipPath><mask id="h"><g filter="url(#a)"><path d="m 0 0 h 16 v 16 h -16 z" fill-opacity="0.05"/></g></mask><clipPath id="i"><path d="m 0 0 h 1600 v 1200 h -1600 z"/></clipPath><mask id="j"><g filter="url(#a)"><path d="m 0 0 h 16 v 16 h -16 z" fill-opacity="0.05"/></g></mask><clipPath id="k"><path d="m 0 0 h 1600 v 1200 h -1600 z"/></clipPath><mask id="l"><g filter="url(#a)"><path d="m 0 0 h 16 v 16 h -16 z" fill-opacity="0.05"/></g></mask><clipPath id="m"><path d="m 0 0 h 1600 v 1200 h -1600 z"/></clipPath><mask id="n"><g filter="url(#a)"><path d="m 0 0 h 16 v 16 h -16 z" fill-opacity="0.05"/></g></mask><clipPath id="o"><path d="m 0 0 h 1600 v 1200 h -1600 z"/></clipPath><mask id="p"><g filter="url(#a)"><path d="m 0 0 h 16 v 16 h -16 z" fill-opacity="0.3"/></g></mask><clipPath id="q"><path d="m 0 0 h 1600 v 1200 h -1600 z"/></clipPath><mask id="r"><g filter="url(#a)"><path d="m 0 0 h 16 v 16 h -16 z" fill-opacity="0.5"/></g></mask><clipPath id="s"><path d="m 0 0 h 1600 v 1200 h -1600 z"/></clipPath><path d="m 2.714844 2.171875 c -0.371094 0.023437 -0.664063 0.421875 -0.488282 0.808594 l 1.023438 2.304687 l 1.46875 -0.566406 l 0.566406 -1.46875 l -2.304687 -1.027344 c -0.089844 -0.039062 -0.179688 -0.054687 -0.265625 -0.046875 z m 10.558594 0.003906 c -0.085938 -0.003906 -0.171876 0.011719 -0.25 0.050781 l -2.308594 1.023438 l 0.566406 1.46875 l 1.472656 0.566406 l 1.023438 -2.304687 c 0.09375 -0.214844 0.046875 -0.46875 -0.117188 -0.632813 c -0.105468 -0.105468 -0.246094 -0.167968 -0.386718 -0.171875 z m -0.523438 8.539063 l -1.46875 0.566406 l -0.566406 1.46875 l 2.308594 1.027344 c 0.476562 0.210937 0.964843 -0.28125 0.753906 -0.757813 z m -9.5 0 l -1.023438 2.304687 c -0.214843 0.476563 0.277344 0.96875 0.753907 0.757813 l 2.304687 -1.023438 l -0.566406 -1.472656 z m 0 0" fill="#2e3436" fill-rule="evenodd"/><path d="m 8 0 c -0.234375 0 -0.449219 0.144531 -0.53125 0.367188 l -1.976562 5.128906 l -5.125 1.972656 c -0.488282 0.1875 -0.488282 0.875 0 1.0625 l 5.125 1.972656 l 1.976562 5.128906 c 0.1875 0.488282 0.875 0.488282 1.0625 0 l 1.976562 -5.128906 l 5.125 -1.972656 c 0.488282 -0.1875 0.488282 -0.875 0 -1.0625 l -5.125 -1.972656 l -1.976562 -5.128906 c -0.082031 -0.21875 -0.292969 -0.367188 -0.53125 -0.367188 z m 0 7 c 0.550781 0 1 0.449219 1 1 s -0.449219 1 -1 1 s -1 -0.449219 -1 -1 s 0.449219 -1 1 -1 z m 0 0" fill="#2e3436" fill-rule="evenodd"/><g clip-path="url(#c)" mask="url(#b)" transform="matrix(1 0 0 1 -620 -80)"><path d="m 562.460938 212.058594 h 10.449218 c -1.183594 0.492187 -1.296875 2.460937 0 3 h -10.449218 z m 0 0" fill="#2e3436"/></g><g clip-path="url(#e)" mask="url(#d)" transform="matrix(1 0 0 1 -620 -80)"><path d="m 16 748 h 1 v 1 h -1 z m 0 0" fill="#2e3436" fill-rule="evenodd"/></g><g clip-path="url(#g)" mask="url(#f)" transform="matrix(1 0 0 1 -620 -80)"><path d="m 17 747 h 1 v 1 h -1 z m 0 0" fill="#2e3436" fill-rule="evenodd"/></g><g clip-path="url(#i)" mask="url(#h)" transform="matrix(1 0 0 1 -620 -80)"><path d="m 18 750 h 1 v 1 h -1 z m 0 0" fill="#2e3436" fill-rule="evenodd"/></g><g clip-path="url(#k)" mask="url(#j)" transform="matrix(1 0 0 1 -620 -80)"><path d="m 16 750 h 1 v 1 h -1 z m 0 0" fill="#2e3436" fill-rule="evenodd"/></g><g clip-path="url(#m)" mask="url(#l)" transform="matrix(1 0 0 1 -620 -80)"><path d="m 17 751 h 1 v 1 h -1 z m 0 0" fill="#2e3436" fill-rule="evenodd"/></g><g clip-path="url(#o)" mask="url(#n)" transform="matrix(1 0 0 1 -620 -80)"><path d="m 19 751 h 1 v 1 h -1 z m 0 0" fill="#2e3436" fill-rule="evenodd"/></g><g clip-path="url(#q)" mask="url(#p)" transform="matrix(1 0 0 1 -620 -80)"><path d="m 136 776 v 7 h 7 v -7 z m 0 0" fill="#2e3436"/></g><g clip-path="url(#s)" mask="url(#r)" transform="matrix(1 0 0 1 -620 -80)"><path d="m 219 758 h 3 v 12 h -3 z m 0 0" fill="#2e3436"/></g></svg>
