<?xml version="1.0" encoding="UTF-8"?>
<svg xmlns="http://www.w3.org/2000/svg" height="16px" viewBox="0 0 16 16" width="16px"><path d="m 10.109375 0.0117188 c -0.113281 -0.01562505 -0.230469 -0.00781255 -0.339844 0.0195312 c -0.335937 0.078125 -0.609375 0.328125 -0.71875 0.65625 l -0.835937 2.515625 c -1.714844 0.546875 -3.589844 0.957031 -5.210938 2.050781 c -1.761718 1.191406 -3.003906 3.308594 -3.003906 6.75 v 2 s -0.015625 0.457032 0.230469 0.949219 c 0.246093 0.488281 0.9375 1.050781 1.769531 1.050781 h 2 c 2.726562 0 4.738281 -1.011718 6.09375 -2.628906 c 1.25 -1.496094 1.984375 -3.445312 2.679688 -5.574219 l 2.542968 -0.847656 c 0.328125 -0.109375 0.578125 -0.382813 0.65625 -0.71875 c 0.082032 -0.335937 -0.019531 -0.691406 -0.265625 -0.9375 l -5 -5 c -0.160156 -0.160156 -0.371093 -0.2617188 -0.597656 -0.2851562 z m 0.328125 2.8437502 l 2.710938 2.710937 l -1.464844 0.488282 c -0.304688 0.101562 -0.539063 0.339843 -0.636719 0.648437 c -0.605469 1.902344 -1.222656 3.53125 -2.011719 4.734375 c -0.375 -0.785156 -1.058594 -1.992188 -2.160156 -3.261719 c -0.179688 -0.207031 -0.496094 -0.230469 -0.703125 -0.046875 c -0.207031 0.179688 -0.230469 0.496094 -0.050781 0.703125 c 1.3125 1.511719 1.972656 2.890625 2.226562 3.5 c -0.992187 1.078125 -2.226562 1.671875 -4.347656 1.671875 h -2 v -2 c 0 -3.011718 0.84375 -4.226562 2.125 -5.09375 c 1.277344 -0.867187 3.195312 -1.265625 5.203125 -1.960937 c 0.292969 -0.101563 0.523437 -0.332031 0.621094 -0.628907 z m -6.4375 7.148437 c -0.550781 0 -1 0.449219 -1 1 c 0 0.550782 0.449219 1 1 1 s 1 -0.449218 1 -1 c 0 -0.550781 -0.449219 -1 -1 -1 z m 0 0" fill="#222222"/></svg>
