<?xml version="1.0" encoding="UTF-8"?>
<svg xmlns="http://www.w3.org/2000/svg" height="16px" viewBox="0 0 16 16" width="16px"><g fill="#222222"><path d="m 5.210938 1.292969 c -0.390626 -0.390625 -1.027344 -0.390625 -1.417969 0 l -2.496094 2.5 c -0.390625 0.390625 -0.390625 1.023437 0 1.414062 l 2.496094 2.5 c 0.390625 0.390625 1.027343 0.390625 1.417969 0 l 2.496093 -2.5 c 0.390625 -0.390625 0.390625 -1.023437 0 -1.414062 z m 0 0"/><path d="m 10 12 c 0 1.65625 -1.339844 3 -3 3 c -1.65625 0 -3 -1.34375 -3 -3 s 1.34375 -3 3 -3 c 1.660156 0 3 1.34375 3 3 z m 0 0"/><path d="m 11.945312 2.003906 c -0.335937 0.015625 -0.640624 0.203125 -0.808593 0.496094 l -2.320313 4 c -0.386718 0.664062 0.09375 1.5 0.863282 1.5 h 4.644531 c 0.769531 0 1.25 -0.835938 0.863281 -1.5 l -2.320312 -4 c -0.1875 -0.328125 -0.542969 -0.519531 -0.921876 -0.496094 z m 0 0"/></g></svg>
