<?xml version="1.0" encoding="UTF-8"?>
<svg xmlns="http://www.w3.org/2000/svg" height="16px" viewBox="0 0 16 16" width="16px"><path d="m 11.40625 1.964844 c -0.972656 -0.027344 -1.921875 0.324218 -2.640625 0.984375 l -0.753906 0.675781 l -0.757813 -0.675781 c -0.996094 -0.898438 -2.402344 -1.191407 -3.675781 -0.769531 c -1.277344 0.417968 -2.230469 1.488281 -2.5 2.804687 s 0.183594 2.675781 1.1875 3.566406 l 5.746094 5.117188 l 5.742187 -5.117188 c 1.171875 -1.011719 1.601563 -2.640625 1.082032 -4.097656 c -0.519532 -1.457031 -1.882813 -2.445313 -3.429688 -2.488281 z m -6.515625 1.953125 c 0.296875 0.019531 0.609375 0.140625 1.027344 0.519531 l 0.003906 0.003906 l 2.089844 1.863282 l 2.097656 -1.871094 l 0.011719 -0.011719 c 0.332031 -0.304687 0.773437 -0.46875 1.230468 -0.457031 c 0.890626 0.023437 1.363282 0.5 1.601563 1.160156 c 0.234375 0.65625 0.167969 1.328125 -0.503906 1.910156 l -0.011719 0.011719 l -4.425781 3.945313 l -4.417969 -3.9375 l -0.003906 -0.003907 c -0.5625 -0.496093 -0.652344 -0.859375 -0.65625 -1.25 c 0 -0.390625 0.179687 -0.855469 0.507812 -1.226562 c 0.332032 -0.367188 0.773438 -0.601563 1.160156 -0.644531 c 0.097657 -0.011719 0.191407 -0.015626 0.289063 -0.011719 z m 0 0" fill="#222222"/></svg>
